<!DOCTYPE svg PUBLIC "-//W3C//DTD SVG 1.1//EN" "http://www.w3.org/Graphics/SVG/1.1/DTD/svg11.dtd">
<svg xmlns="http://www.w3.org/2000/svg" xmlns:xlink="http://www.w3.org/1999/xlink">
	<symbol id="vk" viewBox="0 0 548.358 548.358">
		<path d="M545.451,400.298c-0.664-1.431-1.283-2.618-1.858-3.569c-9.514-17.135-27.695-38.167-54.532-63.102l-0.567-0.571
			l-0.284-0.28l-0.287-0.287h-0.288c-12.18-11.611-19.893-19.418-23.123-23.415c-5.91-7.614-7.234-15.321-4.004-23.13
			c2.282-5.9,10.854-18.36,25.696-37.397c7.807-10.089,13.99-18.175,18.556-24.267c32.931-43.78,47.208-71.756,42.828-83.939
			l-1.701-2.847c-1.143-1.714-4.093-3.282-8.846-4.712c-4.764-1.427-10.853-1.663-18.278-0.712l-82.224,0.568
			c-1.332-0.472-3.234-0.428-5.712,0.144c-2.475,0.572-3.713,0.859-3.713,0.859l-1.431,0.715l-1.136,0.859
			c-0.952,0.568-1.999,1.567-3.142,2.995c-1.137,1.423-2.088,3.093-2.848,4.996c-8.952,23.031-19.13,44.444-30.553,64.238
			c-7.043,11.803-13.511,22.032-19.418,30.693c-5.899,8.658-10.848,15.037-14.842,19.126c-4,4.093-7.61,7.372-10.852,9.849
			c-3.237,2.478-5.708,3.525-7.419,3.142c-1.715-0.383-3.33-0.763-4.859-1.143c-2.663-1.714-4.805-4.045-6.42-6.995
			c-1.622-2.95-2.714-6.663-3.285-11.136c-0.568-4.476-0.904-8.326-1-11.563c-0.089-3.233-0.048-7.806,0.145-13.706
			c0.198-5.903,0.287-9.897,0.287-11.991c0-7.234,0.141-15.085,0.424-23.555c0.288-8.47,0.521-15.181,0.716-20.125
			c0.194-4.949,0.284-10.185,0.284-15.705s-0.336-9.849-1-12.991c-0.656-3.138-1.663-6.184-2.99-9.137
			c-1.335-2.95-3.289-5.232-5.853-6.852c-2.569-1.618-5.763-2.902-9.564-3.856c-10.089-2.283-22.936-3.518-38.547-3.71
			c-35.401-0.38-58.148,1.906-68.236,6.855c-3.997,2.091-7.614,4.948-10.848,8.562c-3.427,4.189-3.905,6.475-1.431,6.851
			c11.422,1.711,19.508,5.804,24.267,12.275l1.715,3.429c1.334,2.474,2.666,6.854,3.999,13.134c1.331,6.28,2.19,13.227,2.568,20.837
			c0.95,13.897,0.95,25.793,0,35.689c-0.953,9.9-1.853,17.607-2.712,23.127c-0.859,5.52-2.143,9.993-3.855,13.418
			c-1.715,3.426-2.856,5.52-3.428,6.28c-0.571,0.76-1.047,1.239-1.425,1.427c-2.474,0.948-5.047,1.431-7.71,1.431
			c-2.667,0-5.901-1.334-9.707-4c-3.805-2.666-7.754-6.328-11.847-10.992c-4.093-4.665-8.709-11.184-13.85-19.558
			c-5.137-8.374-10.467-18.271-15.987-29.691l-4.567-8.282c-2.855-5.328-6.755-13.086-11.704-23.267
			c-4.952-10.185-9.329-20.037-13.134-29.554c-1.521-3.997-3.806-7.04-6.851-9.134l-1.429-0.859c-0.95-0.76-2.475-1.567-4.567-2.427
			c-2.095-0.859-4.281-1.475-6.567-1.854l-78.229,0.568c-7.994,0-13.418,1.811-16.274,5.428l-1.143,1.711
			C0.288,140.146,0,141.668,0,143.763c0,2.094,0.571,4.664,1.714,7.707c11.42,26.84,23.839,52.725,37.257,77.659
			c13.418,24.934,25.078,45.019,34.973,60.237c9.897,15.229,19.985,29.602,30.264,43.112c10.279,13.515,17.083,22.176,20.412,25.981
			c3.333,3.812,5.951,6.662,7.854,8.565l7.139,6.851c4.568,4.569,11.276,10.041,20.127,16.416
			c8.853,6.379,18.654,12.659,29.408,18.85c10.756,6.181,23.269,11.225,37.546,15.126c14.275,3.905,28.169,5.472,41.684,4.716h32.834
			c6.659-0.575,11.704-2.669,15.133-6.283l1.136-1.431c0.764-1.136,1.479-2.901,2.139-5.276c0.668-2.379,1-5,1-7.851
			c-0.195-8.183,0.428-15.558,1.852-22.124c1.423-6.564,3.045-11.513,4.859-14.846c1.813-3.33,3.859-6.14,6.136-8.418
			c2.282-2.283,3.908-3.666,4.862-4.142c0.948-0.479,1.705-0.804,2.276-0.999c4.568-1.522,9.944-0.048,16.136,4.429
			c6.187,4.473,11.99,9.996,17.418,16.56c5.425,6.57,11.943,13.941,19.555,22.124c7.617,8.186,14.277,14.271,19.985,18.274
			l5.708,3.426c3.812,2.286,8.761,4.38,14.853,6.283c6.081,1.902,11.409,2.378,15.984,1.427l73.087-1.14
			c7.229,0,12.854-1.197,16.844-3.572c3.998-2.379,6.373-5,7.139-7.851c0.764-2.854,0.805-6.092,0.145-9.712
			C546.782,404.25,546.115,401.725,545.451,400.298z"/>
	</symbol>
	<symbol id="fb" viewBox="0 0 96.124 96.123">
		<path d="M72.089,0.02L59.624,0C45.62,0,36.57,9.285,36.57,23.656v10.907H24.037c-1.083,0-1.96,0.878-1.96,1.961v15.803
		c0,1.083,0.878,1.96,1.96,1.96h12.533v39.876c0,1.083,0.877,1.96,1.96,1.96h16.352c1.083,0,1.96-0.878,1.96-1.96V54.287h14.654
		c1.083,0,1.96-0.877,1.96-1.96l0.006-15.803c0-0.52-0.207-1.018-0.574-1.386c-0.367-0.368-0.867-0.575-1.387-0.575H56.842v-9.246
		c0-4.444,1.059-6.7,6.848-6.7l8.397-0.003c1.082,0,1.959-0.878,1.959-1.96V1.98C74.046,0.899,73.17,0.022,72.089,0.02z"/>
	</symbol>
	<symbol id="tw" viewBox="0 0 512.002 512.002">
		<path d="M512.002,97.211c-18.84,8.354-39.082,14.001-60.33,16.54c21.686-13,38.342-33.585,46.186-58.115
		c-20.299,12.039-42.777,20.78-66.705,25.49c-19.16-20.415-46.461-33.17-76.674-33.17c-58.011,0-105.042,47.029-105.042,105.039
		c0,8.233,0.929,16.25,2.72,23.939c-87.3-4.382-164.701-46.2-216.509-109.753c-9.042,15.514-14.223,33.558-14.223,52.809
		c0,36.444,18.544,68.596,46.73,87.433c-17.219-0.546-33.416-5.271-47.577-13.139c-0.01,0.438-0.01,0.878-0.01,1.321
		c0,50.894,36.209,93.348,84.261,103c-8.813,2.399-18.094,3.687-27.674,3.687c-6.769,0-13.349-0.66-19.764-1.888
		c13.368,41.73,52.16,72.104,98.126,72.949c-35.95,28.176-81.243,44.967-130.458,44.967c-8.479,0-16.84-0.496-25.058-1.471
		c46.486,29.807,101.701,47.197,161.021,47.197c193.211,0,298.868-160.062,298.868-298.872c0-4.554-0.104-9.084-0.305-13.59
		C480.111,136.775,497.92,118.275,512.002,97.211z"/>
	</symbol>
	<symbol id="info" viewBox="0 0 401.998 401.998">
		<path d="M164.454,91.363h73.098c4.945,0,9.226-1.807,12.847-5.424c3.61-3.614,5.421-7.898,5.421-12.847V18.274
		c0-4.948-1.811-9.229-5.428-12.85C246.777,1.812,242.49,0,237.544,0h-73.091c-4.946,0-9.229,1.812-12.847,5.424
		c-3.615,3.617-5.424,7.902-5.424,12.85v54.818c0,4.949,1.809,9.233,5.424,12.847C155.224,89.556,159.507,91.363,164.454,91.363z"
		/>
		<path d="M286.936,334.331c-3.613-3.617-7.897-5.427-12.847-5.427h-18.274V164.452c0-4.947-1.807-9.229-5.421-12.845
		c-3.62-3.617-7.904-5.426-12.847-5.426H127.912c-4.949,0-9.231,1.809-12.847,5.426c-3.618,3.616-5.424,7.898-5.424,12.845v36.547
		c0,4.946,1.807,9.231,5.424,12.845c3.615,3.621,7.898,5.428,12.847,5.428h18.274v109.633h-18.274
		c-4.949,0-9.231,1.81-12.847,5.427c-3.618,3.614-5.424,7.898-5.424,12.847v36.546c0,4.948,1.807,9.232,5.424,12.854
		c3.615,3.61,7.898,5.421,12.847,5.421h146.177c4.949,0,9.233-1.811,12.847-5.421c3.614-3.621,5.421-7.905,5.421-12.854v-36.546
		C292.357,342.229,290.56,337.945,286.936,334.331z"/>
	</symbol>
	<symbol id="left" viewBox="0 0 22.062 22.062">
		<path d="M10.544,11.031l6.742-6.742c0.81-0.809,0.81-2.135,0-2.944l-0.737-0.737
		c-0.81-0.811-2.135-0.811-2.945,0L4.769,9.443c-0.435,0.434-0.628,1.017-0.597,1.589c-0.031,0.571,0.162,1.154,0.597,1.588
		l8.835,8.834c0.81,0.811,2.135,0.811,2.945,0l0.737-0.737c0.81-0.808,0.81-2.134,0-2.943L10.544,11.031z"/>
	</symbol>
	<symbol id="right" viewBox="0 0 22.062 22.062">
		<path d="M17.294,9.443L8.459,0.608c-0.812-0.811-2.138-0.811-2.945,0L4.775,1.345c-0.81,0.81-0.81,2.136,0,2.944l6.742,6.743
		l-6.742,6.741c-0.81,0.811-0.81,2.137,0,2.943l0.737,0.737c0.81,0.811,2.136,0.811,2.945,0l8.835-8.836
		c0.435-0.435,0.628-1.018,0.597-1.589C17.922,10.46,17.729,9.877,17.294,9.443z"/>
	</symbol>
	<symbol id="search" viewBox="0 0 250.313 250.313">
		<path d="M244.186 214.604l-54.38-54.378c-.288-.29-.627-.49-.93-.76 10.7-16.23 16.946-35.66 16.946-56.554C205.822 46.075 159.747 0 102.912 0S0 46.075 0 102.91c0 56.836 46.074 102.912 102.91 102.912 20.895 0 40.323-6.245 56.554-16.945.27.3.47.64.76.93l54.38 54.38c8.168 8.167 21.412 8.167 29.582 0 8.168-8.17 8.168-21.414 0-29.583zM102.91 170.146c-37.133 0-67.235-30.102-67.235-67.235 0-37.133 30.103-67.235 67.236-67.235s67.236 30.103 67.236 67.236c0 37.134-30.103 67.236-67.235 67.236z" fill-rule="evenodd" clip-rule="evenodd"/>
	</symbol>
	<symbol id="login" viewBox="0 0 350 350">
		<path d="M175,171.173c38.914,0,70.463-38.318,70.463-85.586C245.463,38.318,235.105,0,175,0s-70.465,38.318-70.465,85.587
		C104.535,132.855,136.084,171.173,175,171.173z"/>
		<path d="M41.909,301.853C41.897,298.971,41.885,301.041,41.909,301.853L41.909,301.853z"/>
		<path d="M308.085,304.104C308.123,303.315,308.098,298.63,308.085,304.104L308.085,304.104z"/>
		<path d="M307.935,298.397c-1.305-82.342-12.059-105.805-94.352-120.657c0,0-11.584,14.761-38.584,14.761
		s-38.586-14.761-38.586-14.761c-81.395,14.69-92.803,37.805-94.303,117.982c-0.123,6.547-0.18,6.891-0.202,6.131
		c0.005,1.424,0.011,4.058,0.011,8.651c0,0,19.592,39.496,133.08,39.496c113.486,0,133.08-39.496,133.08-39.496
		c0-2.951,0.002-5.003,0.005-6.399C308.062,304.575,308.018,303.664,307.935,298.397z"/>
	</symbol>
</svg>
